<?xml version="1.0" standalone="no"?>
<!DOCTYPE svg PUBLIC "-//W3C//DTD SVG 20010904//EN"
 "http://www.w3.org/TR/2001/REC-SVG-20010904/DTD/svg10.dtd">
<svg version="1.0" xmlns="http://www.w3.org/2000/svg"
 width="1165.000000pt" height="350.000000pt" viewBox="0 0 1165.000000 350.000000"
 preserveAspectRatio="xMidYMid meet">

<g transform="translate(0.000000,350.000000) scale(0.100000,-0.100000)"
fill="#444" stroke="none">
<path d="M69 3393 c5 -10 250 -385 545 -833 l536 -815 0 -812 0 -813 40 0 40
0 0 825 0 825 -532 820 -533 819 -53 1 c-47 0 -52 -2 -43 -17z"/>
<path d="M840 3404 c0 -4 192 -339 427 -745 325 -561 430 -736 439 -726 6 6
177 284 379 617 203 333 404 662 447 733 l78 127 -198 0 -197 -1 -254 -420
c-140 -231 -258 -416 -261 -412 -4 5 -114 194 -244 421 l-238 412 -189 0
c-104 0 -189 -3 -189 -6z"/>
<path d="M2750 2588 l-535 -821 3 -824 2 -823 40 0 40 0 0 814 0 813 538 819
c296 451 541 825 545 832 6 9 -5 12 -45 12 l-53 -1 -535 -821z"/>
<path d="M3400 1765 l0 -1645 40 0 40 0 0 1645 0 1645 -40 0 -40 0 0 -1645z"/>
<path d="M4090 2705 l0 -705 690 0 690 0 0 705 0 705 -165 0 -165 0 0 -540 0
-540 -360 0 -360 0 0 540 0 540 -165 0 -165 0 0 -705z"/>
<path d="M6090 1765 l0 -1645 35 0 35 0 0 1645 0 1645 -35 0 -35 0 0 -1645z"/>
<path d="M7365 3403 c-96 -12 -262 -50 -335 -76 -468 -164 -731 -521 -680
-923 22 -181 84 -314 205 -442 89 -95 153 -144 286 -219 107 -61 150 -80 414
-179 141 -53 346 -148 421 -195 49 -30 74 -85 74 -159 0 -190 -179 -309 -362
-240 -111 41 -169 122 -191 266 l-12 79 -35 0 c-35 0 -35 0 -38 -48 -6 -98 44
-212 127 -290 77 -72 121 -90 231 -95 120 -5 185 17 259 86 72 68 101 136 101
237 0 100 -20 146 -86 203 -62 55 -299 167 -539 257 -334 125 -515 241 -642
409 -167 223 -182 539 -36 778 20 34 69 95 107 136 211 222 526 342 903 343
152 0 217 -8 341 -45 145 -44 265 -110 389 -215 158 -135 255 -323 271 -524
l7 -92 39 -3 39 -3 -6 103 c-8 153 -65 307 -160 437 -142 194 -427 354 -725
406 -80 14 -288 18 -367 8z"/>
<path d="M8780 1765 l0 -1645 40 0 40 0 0 1645 0 1645 -40 0 -40 0 0 -1645z"/>
<path d="M9470 2705 l0 -705 695 0 695 0 0 705 0 705 -170 0 -170 0 0 -540 0
-540 -355 0 -355 0 0 540 0 540 -170 0 -170 0 0 -705z"/>
<path d="M11470 1765 l0 -1645 40 0 40 0 0 1645 0 1645 -40 0 -40 0 0 -1645z"/>
<path d="M7390 2879 c-76 -13 -188 -70 -248 -126 -74 -70 -105 -144 -105 -253
0 -121 25 -182 112 -269 55 -56 87 -77 191 -128 142 -70 257 -120 450 -198
218 -86 350 -168 488 -299 121 -115 162 -224 162 -426 0 -193 -43 -321 -157
-461 -111 -138 -253 -215 -488 -266 -117 -25 -486 -25 -605 0 -174 37 -303 92
-418 178 -100 76 -208 248 -245 394 -9 33 -20 112 -24 175 l-8 115 -162 3
-163 2 0 -98 c0 -180 38 -342 115 -489 146 -279 379 -456 720 -548 172 -46
277 -57 508 -52 224 5 282 12 439 52 199 50 380 145 517 270 108 98 218 284
267 450 25 83 27 104 27 275 1 201 -6 243 -61 376 -65 156 -194 299 -385 428
-126 84 -266 154 -537 265 -69 29 -188 84 -265 124 l-140 72 0 45 c0 39 4 47
35 68 28 19 44 23 83 19 56 -5 81 -24 103 -83 l17 -44 164 0 163 0 -6 28 c-36
165 -64 223 -143 302 -72 73 -142 101 -261 106 -47 1 -110 -1 -140 -7z"/>
<path d="M4090 865 l0 -745 165 0 165 0 0 580 0 580 360 0 360 0 0 -580 0
-580 165 0 165 0 0 745 0 745 -690 0 -690 0 0 -745z"/>
<path d="M9470 865 l0 -745 170 0 170 0 0 580 0 580 355 0 355 0 0 -580 0
-580 170 0 170 0 0 745 0 745 -695 0 -695 0 0 -745z"/>
</g>
</svg>
